<?xml version="1.0" encoding="utf-8"?>
<!-- Generator: Adobe Illustrator 21.0.2, SVG Export Plug-In . SVG Version: 6.00 Build 0)  -->
<svg version="1.1" id="Layer_1" xmlns="http://www.w3.org/2000/svg" xmlns:xlink="http://www.w3.org/1999/xlink" x="0px" y="0px"
	 viewBox="0 0 99 70" style="enable-background:new 0 0 99 70;" xml:space="preserve">
<style type="text/css">
	.st0{fill:#4E2098;}
	.st1{fill:#4E2098;stroke:#FFFFFF;stroke-width:0.974;stroke-miterlimit:10;stroke-dasharray:3.8961,3.8961;}
	.st2{fill:#FFFFFF;}
</style>
<g>
	<path class="st0" d="M90.1,35.1c0-4.3,3.5-7.8,7.8-7.8V4c0-1.6-1.3-2.9-2.9-2.9H3.4C1.8,1,0.5,2.3,0.5,4v23.4
		c4.3,0,7.8,3.5,7.8,7.8s-3.5,7.8-7.8,7.8v23.4c0,1.6,1.3,2.9,2.9,2.9h91.6c1.6,0,2.9-1.3,2.9-2.9V42.9
		C93.6,42.9,90.1,39.4,90.1,35.1z"/>
	<path class="st1" d="M94.9,24.8V4.9c0-0.5-0.4-1-1-1H4.3c-0.5,0-1,0.4-1,1v19.9c4.5,1.3,7.8,5.4,7.8,10.3s-3.3,9-7.8,10.3v19.9
		c0,0.5,0.4,1,1,1H94c0.5,0,1-0.4,1-1V45.4c-4.5-1.3-7.8-5.4-7.8-10.3S90.4,26.1,94.9,24.8z"/>
</g>
<g>
	<path class="st2" d="M24.2,21.2c0.3,0,0.5,0.1,0.5,0.4l3.5,10c0.1,0.3,0,0.5-0.3,0.5H26c-0.3,0-0.5-0.1-0.5-0.4l-0.6-1.7h-3.6
		l-0.6,1.7c-0.1,0.3-0.2,0.4-0.5,0.4h-1.9c-0.3,0-0.5-0.2-0.3-0.5l3.5-10c0.1-0.3,0.2-0.4,0.5-0.4H24.2z M24.4,27.9l-1.3-4h0l-1.3,4
		H24.4z"/>
	<path class="st2" d="M38.5,31.8c0,0.3-0.2,0.5-0.5,0.5h-1.7c-0.3,0-0.4-0.1-0.6-0.3l-3.7-6.2v6.1c0,0.3-0.1,0.5-0.5,0.5H30
		c-0.3,0-0.5-0.1-0.5-0.5V21.7c0-0.3,0.1-0.5,0.5-0.5h1.7c0.3,0,0.5,0.1,0.6,0.3l3.7,6.2v-6.1c0-0.3,0.1-0.5,0.5-0.5h1.7
		c0.3,0,0.5,0.1,0.5,0.5V31.8z"/>
	<path class="st2" d="M49.6,31.8c0,0.3-0.2,0.5-0.5,0.5h-1.7c-0.3,0-0.4-0.1-0.6-0.3l-3.7-6.2v6.1c0,0.3-0.1,0.5-0.5,0.5H41
		c-0.3,0-0.5-0.1-0.5-0.5V21.7c0-0.3,0.1-0.5,0.5-0.5h1.7c0.3,0,0.5,0.1,0.6,0.3l3.7,6.2v-6.1c0-0.3,0.1-0.5,0.5-0.5h1.7
		c0.3,0,0.5,0.1,0.5,0.5V31.8z"/>
	<path class="st2" d="M51.6,28.2v-6.5c0-0.3,0.1-0.5,0.5-0.5h1.8c0.3,0,0.5,0.1,0.5,0.5v6.3c0,1.4,0.5,2.1,1.8,2.1s1.8-0.7,1.8-2.1
		v-6.3c0-0.3,0.1-0.5,0.5-0.5H60c0.3,0,0.5,0.1,0.5,0.5v6.5c0,2.8-1.5,4.2-4.4,4.2C53,32.4,51.6,31,51.6,28.2z"/>
	<path class="st2" d="M67.7,21.2c0.3,0,0.5,0.1,0.5,0.4l3.5,10c0.1,0.3,0,0.5-0.3,0.5h-1.9c-0.3,0-0.5-0.1-0.5-0.4l-0.6-1.7h-3.6
		l-0.6,1.7c-0.1,0.3-0.2,0.4-0.5,0.4h-1.9c-0.3,0-0.5-0.2-0.3-0.5l3.5-10c0.1-0.3,0.2-0.4,0.5-0.4H67.7z M67.9,27.9l-1.3-4h0l-1.3,4
		H67.9z"/>
	<path class="st2" d="M75.7,29.8h3.9c0.3,0,0.5,0.1,0.5,0.5v1.5c0,0.3-0.1,0.5-0.5,0.5h-6.1c-0.3,0-0.5-0.1-0.5-0.5V21.7
		c0-0.3,0.1-0.5,0.5-0.5h1.8c0.3,0,0.5,0.1,0.5,0.5V29.8z"/>
	<path class="st2" d="M31.3,47.8c-0.3,0-0.5-0.1-0.5-0.5V37.2c0-0.3,0.1-0.5,0.5-0.5h3.6c3,0,4.6,1.1,4.6,4c0,2.9-1.6,4-4.6,4h-1.4
		v2.6c0,0.3-0.1,0.5-0.5,0.5H31.3z M34.9,42.5c1.4,0,2-0.5,2-1.7c0-1.2-0.6-1.7-2-1.7h-1.4v3.4H34.9z"/>
	<path class="st2" d="M45.8,36.8c0.3,0,0.5,0.1,0.5,0.4l3.5,10c0.1,0.3,0,0.5-0.3,0.5h-1.9c-0.3,0-0.5-0.1-0.5-0.4l-0.6-1.7h-3.6
		l-0.6,1.7c-0.1,0.3-0.2,0.4-0.5,0.4h-1.9c-0.3,0-0.5-0.2-0.3-0.5l3.5-10c0.1-0.3,0.2-0.4,0.5-0.4H45.8z M46,43.5l-1.3-4h0l-1.3,4
		H46z"/>
	<path class="st2" d="M54.6,48c-1.5,0-2.8-0.3-3.6-0.7c-0.2-0.1-0.4-0.3-0.2-0.6l0.4-1.2c0.1-0.3,0.3-0.4,0.6-0.3
		c0.5,0.2,1.4,0.5,2.4,0.5c1.2,0,2-0.3,2-1c0-0.7-0.8-1-1.9-1.4c-1.7-0.6-3.3-1.3-3.3-3.6c0-2.1,1.5-3.1,4.1-3.1
		c1.4,0,2.5,0.3,3.1,0.6c0.2,0.1,0.4,0.3,0.3,0.6L58,38.9c-0.1,0.3-0.3,0.4-0.6,0.3c-0.6-0.2-1.3-0.3-2.1-0.3
		c-1.1,0-1.7,0.2-1.7,0.9c0,0.7,0.7,1,1.9,1.4c1.8,0.7,3.4,1.3,3.4,3.5C58.8,47,56.9,48,54.6,48z"/>
	<path class="st2" d="M63.7,48c-1.5,0-2.8-0.3-3.6-0.7c-0.2-0.1-0.4-0.3-0.2-0.6l0.4-1.2c0.1-0.3,0.3-0.4,0.6-0.3
		c0.5,0.2,1.4,0.5,2.4,0.5c1.2,0,2-0.3,2-1c0-0.7-0.8-1-1.9-1.4C61.6,42.7,60,42,60,39.7c0-2.1,1.5-3.1,4.1-3.1
		c1.4,0,2.5,0.3,3.1,0.6c0.2,0.1,0.4,0.3,0.3,0.6L67,38.9c-0.1,0.3-0.3,0.4-0.6,0.3c-0.6-0.2-1.3-0.3-2.1-0.3
		c-1.1,0-1.7,0.2-1.7,0.9c0,0.7,0.7,1,1.9,1.4c1.8,0.7,3.4,1.3,3.4,3.5C67.9,47,66,48,63.7,48z"/>
</g>
</svg>
