<?xml version="1.0" encoding="utf-8"?>
<!-- Generator: Adobe Illustrator 21.0.2, SVG Export Plug-In . SVG Version: 6.00 Build 0)  -->
<svg version="1.1" id="Layer_1" xmlns="http://www.w3.org/2000/svg" xmlns:xlink="http://www.w3.org/1999/xlink" x="0px" y="0px"
	 viewBox="0 0 99 70" style="enable-background:new 0 0 99 70;" xml:space="preserve">
<style type="text/css">
	.st0{fill:#C01D33;}
	.st1{fill:#C01D33;stroke:#FFFFFF;stroke-width:0.9701;stroke-miterlimit:10;stroke-dasharray:3.8805,3.8805;}
	.st2{fill:#FFFFFF;}
</style>
<g>
	<g>
		<path class="st0" d="M90.5,34.8c0-4.3,3.5-7.8,7.8-7.8V3.7c0-1.6-1.3-2.9-2.9-2.9H4.2c-1.6,0-2.9,1.3-2.9,2.9V27
			C5.5,27,9,30.5,9,34.8s-3.5,7.8-7.8,7.8v23.3c0,1.6,1.3,2.9,2.9,2.9h91.2c1.6,0,2.9-1.3,2.9-2.9V42.5C94,42.5,90.5,39.1,90.5,34.8
			z"/>
		<path class="st1" d="M95.4,24.5V4.7c0-0.5-0.4-1-1-1H5.1c-0.5,0-1,0.4-1,1v19.8c4.5,1.3,7.8,5.4,7.8,10.3s-3.3,9-7.8,10.3v19.8
			c0,0.5,0.4,1,1,1h89.3c0.5,0,1-0.4,1-1V45c-4.5-1.3-7.8-5.4-7.8-10.3S90.9,25.8,95.4,24.5z"/>
	</g>
	<g>
		<path class="st2" d="M24,32c-1.5,0-2.8-0.3-3.6-0.7c-0.2-0.1-0.4-0.2-0.2-0.6l0.4-1.2c0.1-0.3,0.3-0.4,0.6-0.3
			c0.5,0.2,1.4,0.5,2.4,0.5c1.1,0,2-0.3,2-1c0-0.7-0.8-1-1.9-1.4c-1.7-0.6-3.3-1.3-3.3-3.5c0-2.1,1.5-3.1,4.1-3.1
			c1.4,0,2.5,0.3,3.1,0.6c0.2,0.1,0.4,0.3,0.3,0.6L27.4,23c-0.1,0.3-0.3,0.4-0.6,0.3c-0.6-0.2-1.3-0.3-2.1-0.3
			c-1.1,0-1.7,0.2-1.7,0.9c0,0.7,0.7,1,1.8,1.4c1.8,0.7,3.4,1.3,3.4,3.5C28.3,31.1,26.4,32,24,32z"/>
		<path class="st2" d="M32.4,27.4v2.3h4.2c0.3,0,0.5,0.1,0.5,0.5v1.3c0,0.3-0.1,0.5-0.5,0.5h-6.3c-0.3,0-0.4-0.1-0.4-0.5V21.4
			c0-0.3,0.1-0.5,0.4-0.5h6.3c0.3,0,0.5,0.1,0.5,0.5v1.3c0,0.3-0.1,0.5-0.5,0.5h-4.1v2.1h3.9c0.3,0,0.4,0.2,0.4,0.5v1.2
			c0,0.3-0.1,0.5-0.4,0.5H32.4z"/>
		<path class="st2" d="M44.2,20.9c0.3,0,0.4,0.1,0.5,0.4l3.5,10c0.1,0.3,0,0.5-0.3,0.5H46c-0.3,0-0.4-0.1-0.5-0.4l-0.6-1.7h-3.6
			l-0.6,1.7c-0.1,0.3-0.2,0.4-0.5,0.4h-1.9c-0.3,0-0.4-0.2-0.3-0.5l3.5-10c0.1-0.3,0.2-0.4,0.5-0.4H44.2z M44.4,27.6l-1.3-4h0
			l-1.3,4H44.4z"/>
		<path class="st2" d="M53,32c-1.5,0-2.8-0.3-3.6-0.7c-0.2-0.1-0.4-0.2-0.2-0.6l0.4-1.2c0.1-0.3,0.3-0.4,0.6-0.3
			c0.5,0.2,1.4,0.5,2.4,0.5c1.1,0,2-0.3,2-1c0-0.7-0.8-1-1.9-1.4c-1.7-0.6-3.3-1.3-3.3-3.5c0-2.1,1.5-3.1,4.1-3.1
			c1.4,0,2.5,0.3,3.1,0.6c0.2,0.1,0.4,0.3,0.3,0.6L56.3,23c-0.1,0.3-0.3,0.4-0.6,0.3c-0.6-0.2-1.3-0.3-2.1-0.3
			c-1.1,0-1.7,0.2-1.7,0.9c0,0.7,0.7,1,1.8,1.4c1.8,0.7,3.4,1.3,3.4,3.5C57.2,31.1,55.3,32,53,32z"/>
		<path class="st2" d="M68.3,26.4c0,3.9-1.9,5.6-4.9,5.6c-3,0-4.9-1.8-4.9-5.6c0-3.9,1.9-5.7,4.9-5.7C66.4,20.7,68.3,22.5,68.3,26.4
			z M65.6,26.4c0-2.3-0.7-3.4-2.2-3.4c-1.5,0-2.2,1.1-2.2,3.4c0,2.3,0.7,3.4,2.2,3.4C64.8,29.8,65.6,28.7,65.6,26.4z"/>
		<path class="st2" d="M78.9,31.4c0,0.3-0.2,0.5-0.5,0.5h-1.7c-0.3,0-0.4-0.1-0.6-0.3l-3.7-6.2v6c0,0.3-0.1,0.5-0.4,0.5h-1.7
			c-0.3,0-0.4-0.1-0.4-0.5V21.4c0-0.3,0.1-0.5,0.4-0.5h1.7c0.3,0,0.4,0.1,0.6,0.3l3.7,6.2v-6c0-0.3,0.1-0.5,0.5-0.5h1.7
			c0.3,0,0.5,0.1,0.5,0.5V31.4z"/>
		<path class="st2" d="M32,47.4c-0.3,0-0.4-0.1-0.4-0.5V36.9c0-0.3,0.1-0.5,0.4-0.5h3.6c3,0,4.6,1.1,4.6,3.9c0,2.9-1.6,3.9-4.6,3.9
			h-1.4v2.6c0,0.3-0.1,0.5-0.5,0.5H32z M35.6,42.1c1.4,0,2-0.4,2-1.7c0-1.2-0.6-1.7-2-1.7h-1.4v3.4H35.6z"/>
		<path class="st2" d="M46.4,36.4c0.3,0,0.4,0.1,0.5,0.4l3.5,10c0.1,0.3,0,0.5-0.3,0.5h-1.8c-0.3,0-0.4-0.1-0.5-0.4l-0.6-1.7h-3.6
			L43,47c-0.1,0.3-0.2,0.4-0.5,0.4h-1.9c-0.3,0-0.4-0.2-0.3-0.5l3.5-10c0.1-0.3,0.2-0.4,0.5-0.4H46.4z M46.6,43.1l-1.3-4h0l-1.3,4
			H46.6z"/>
		<path class="st2" d="M55.2,47.6c-1.5,0-2.8-0.3-3.6-0.7c-0.2-0.1-0.4-0.2-0.2-0.6l0.4-1.2c0.1-0.3,0.3-0.4,0.6-0.3
			c0.5,0.2,1.4,0.5,2.4,0.5c1.1,0,2-0.3,2-1c0-0.7-0.8-1-1.9-1.4c-1.7-0.6-3.3-1.3-3.3-3.5c0-2.1,1.5-3.1,4.1-3.1
			c1.4,0,2.5,0.3,3.1,0.6c0.2,0.1,0.4,0.3,0.3,0.6l-0.4,1.1c-0.1,0.3-0.3,0.4-0.6,0.3c-0.6-0.2-1.3-0.3-2.1-0.3
			c-1.1,0-1.7,0.2-1.7,0.9c0,0.7,0.7,1,1.8,1.4c1.8,0.7,3.4,1.3,3.4,3.5C59.4,46.6,57.5,47.6,55.2,47.6z"/>
		<path class="st2" d="M64.2,47.6c-1.5,0-2.8-0.3-3.6-0.7c-0.2-0.1-0.4-0.2-0.2-0.6l0.4-1.2c0.1-0.3,0.3-0.4,0.6-0.3
			c0.5,0.2,1.4,0.5,2.4,0.5c1.1,0,2-0.3,2-1c0-0.7-0.8-1-1.9-1.4c-1.7-0.6-3.3-1.3-3.3-3.5c0-2.1,1.5-3.1,4.1-3.1
			c1.4,0,2.5,0.3,3.1,0.6c0.2,0.1,0.4,0.3,0.3,0.6l-0.4,1.1c-0.1,0.3-0.3,0.4-0.6,0.3c-0.6-0.2-1.3-0.3-2.1-0.3
			c-1.1,0-1.7,0.2-1.7,0.9c0,0.7,0.7,1,1.8,1.4c1.8,0.7,3.4,1.3,3.4,3.5C68.4,46.6,66.5,47.6,64.2,47.6z"/>
	</g>
</g>
</svg>
