<?xml version="1.0" encoding="utf-8"?>
<!-- Generator: Adobe Illustrator 19.0.0, SVG Export Plug-In . SVG Version: 6.00 Build 0)  -->
<svg version="1.1" id="Layer_1" xmlns="http://www.w3.org/2000/svg" xmlns:xlink="http://www.w3.org/1999/xlink" x="0px" y="0px"
	 viewBox="0 0 35 35" style="enable-background:new 0 0 35 35;" xml:space="preserve">
<style type="text/css">
	.st0{fill:none;stroke:#088DC9;stroke-miterlimit:10;}
	.st1{fill:none;stroke:#088DC9;stroke-linecap:round;stroke-linejoin:round;stroke-miterlimit:10;}
</style>
<g id="XMLID_5915_">
	<g id="XMLID_5917_">
		<path id="XMLID_5926_" class="st0" d="M3.8,32.4H10c0.4,0,0.8-0.3,0.8-0.8V3.2c0-0.4-0.3-0.8-0.8-0.8H3.8c-0.4,0-0.8,0.3-0.8,0.8
			v28.5C3.1,32.1,3.4,32.4,3.8,32.4z"/>
		<line id="XMLID_5925_" class="st0" x1="11" y1="6.3" x2="7.1" y2="6.3"/>
		<line id="XMLID_5924_" class="st0" x1="11" y1="9.5" x2="7.9" y2="9.5"/>
		<line id="XMLID_5923_" class="st0" x1="11" y1="12.7" x2="7.1" y2="12.7"/>
		<line id="XMLID_5922_" class="st0" x1="11" y1="15.9" x2="7.9" y2="15.9"/>
		<line id="XMLID_5921_" class="st0" x1="11" y1="19" x2="7.1" y2="19"/>
		<line id="XMLID_5920_" class="st0" x1="11" y1="22.2" x2="7.9" y2="22.2"/>
		<line id="XMLID_5919_" class="st0" x1="11" y1="25.4" x2="7.1" y2="25.4"/>
		<line id="XMLID_5918_" class="st0" x1="11" y1="28.6" x2="7.9" y2="28.6"/>
	</g>
	<path id="XMLID_5916_" class="st1" d="M31.9,18.8v-1.7c0-0.1,0-0.1,0-0.1l-5.1-7.4h-2.1c1.5-0.7,2.4-2.4,2-4.2
		c-0.3-1.3-1.4-2.4-2.8-2.8c-2.4-0.6-4.6,1.3-4.6,3.6c0,1.5,0.9,2.7,2.1,3.3h-2.1l-5.1,7.4c0,0,0,0.1,0,0.1v1.7
		c0,0.5,0.6,0.7,0.9,0.3l4.3-4.7v6.8l-2.7,10.7c-0.1,0.3,0.2,0.6,0.5,0.6h2.5l3.5-10.2l3.5,10.2H29c0.3,0,0.6-0.3,0.5-0.6l-2.7-10.7
		h0v-6.8l4.3,4.7C31.4,19.5,31.9,19.2,31.9,18.8z"/>
</g>
</svg>
