<?xml version="1.0" encoding="utf-8"?>
<!-- Generator: Adobe Illustrator 19.0.0, SVG Export Plug-In . SVG Version: 6.00 Build 0)  -->
<svg version="1.1" id="Layer_1" xmlns="http://www.w3.org/2000/svg" xmlns:xlink="http://www.w3.org/1999/xlink" x="0px" y="0px"
	 viewBox="0 0 35 35" style="enable-background:new 0 0 35 35;" xml:space="preserve">
<style type="text/css">
	.st0{fill:none;stroke:#088DC9;stroke-miterlimit:10;}
</style>
<g id="XMLID_5931_">
	<path id="XMLID_5937_" class="st0" d="M16.4,24.6v5.2h-3.4c-0.2,0-0.4,0.2-0.4,0.4v1.9c0,0.2,0.2,0.4,0.4,0.4h8.9
		c0.2,0,0.4-0.2,0.4-0.4v-1.9c0-0.2-0.2-0.4-0.4-0.4h-3.4v-5.4"/>
	<line id="XMLID_5936_" class="st0" x1="16.4" y1="13.8" x2="16.4" y2="17.8"/>
	<path id="XMLID_5935_" class="st0" d="M18.6,7.2V2.8c0-0.1-0.1-0.3-0.3-0.3h-1.6c-0.1,0-0.3,0.1-0.3,0.3V7"/>
	<line id="XMLID_5934_" class="st0" x1="18.6" y1="17.7" x2="18.6" y2="13.8"/>
	<path id="XMLID_5933_" class="st0" d="M8.6,25l-3.1-2.8c-0.1-0.1-0.2-0.3,0-0.5l2.6-3.2c0.1-0.1,0.2-0.1,0.2-0.1L28.9,17
		c0.3,0,0.5,0.3,0.3,0.5l-1.5,2.9c-0.1,0.1,0,0.3,0,0.4l1.8,2.3c0.2,0.2,0,0.6-0.3,0.6L8.9,25.1C8.8,25.1,8.7,25.1,8.6,25z"/>
	<path id="XMLID_5932_" class="st0" d="M26.4,14.4l3.1-2.8c0.1-0.1,0.2-0.3,0-0.5l-2.6-3.2c-0.1-0.1-0.2-0.1-0.2-0.1L6.1,6.3
		c-0.3,0-0.5,0.3-0.3,0.5l1.5,2.9c0.1,0.1,0,0.3,0,0.4l-1.8,2.3c-0.2,0.2,0,0.6,0.3,0.6l20.4,1.4C26.2,14.5,26.3,14.4,26.4,14.4z"/>
</g>
</svg>
