<?xml version="1.0" encoding="utf-8"?>
<!-- Generator: Adobe Illustrator 19.0.0, SVG Export Plug-In . SVG Version: 6.00 Build 0)  -->
<svg version="1.1" id="Layer_1" xmlns="http://www.w3.org/2000/svg" xmlns:xlink="http://www.w3.org/1999/xlink" x="0px" y="0px"
	 viewBox="0 0 101.8 69.7" style="enable-background:new 0 0 101.8 69.7;" xml:space="preserve">
<style type="text/css">
	.st0{fill:#1691D0;}
	.st1{fill:#1691D0;stroke:#FFFFFF;stroke-width:0.8422;stroke-miterlimit:10;stroke-dasharray:3.3686,3.3686;}
	.st2{fill:none;}
	.st3{fill:#FFFFFF;}
	.st4{font-family:'AmsiPro-Black';}
	.st5{font-size:14.1257px;}
</style>
<g id="XMLID_701_">
	<g id="XMLID_704_">
		<path id="XMLID_706_" class="st0" d="M88,34.8c0-3.9,3.2-7.1,7.1-7.1V6.6c0-1.5-1.2-2.6-2.6-2.6h-83c-1.5,0-2.6,1.2-2.6,2.6v21.2
			c3.9,0,7.1,3.2,7.1,7.1s-3.2,7.1-7.1,7.1v21.2c0,1.5,1.2,2.6,2.6,2.6h83c1.5,0,2.6-1.2,2.6-2.6V41.9C91.1,41.9,88,38.7,88,34.8z"
			/>
		<path id="XMLID_705_" class="st1" d="M92.4,25.5v-18c0-0.5-0.4-0.9-0.9-0.9H10.3C9.8,6.6,9.4,7,9.4,7.5v18
			c4.1,1.2,7.1,4.9,7.1,9.3s-3,8.2-7.1,9.3v18c0,0.5,0.4,0.9,0.9,0.9h81.2c0.5,0,0.9-0.4,0.9-0.9v-18c-4.1-1.2-7.1-4.9-7.1-9.3
			S88.3,26.7,92.4,25.5z"/>
	</g>
	<rect id="XMLID_170_" x="9.4" y="22.2" class="st2" width="83" height="43.3"/>
	<text id="XMLID_702_" transform="matrix(1 0 0 1 30.8032 32.1925)"><tspan x="0" y="0" class="st3 st4 st5">1 day</tspan><tspan x="-3.3" y="14.1" class="st3 st4 st5">ticket</tspan></text>
</g>
</svg>
